<?xml version="1.0" encoding="UTF-8" standalone="no"?>
<svg
   width="140"
   height="140"
   version="1.1"
   viewBox="0 0 26.191 52.388"
   id="svg3515"
   sodipodi:docname="ansys-mechanical-enterprise-logo.svg"
   inkscape:version="1.2.1 (9c6d41e410, 2022-07-14)"
   xmlns:inkscape="http://www.inkscape.org/namespaces/inkscape"
   xmlns:sodipodi="http://sodipodi.sourceforge.net/DTD/sodipodi-0.dtd"
   xmlns="http://www.w3.org/2000/svg"
   xmlns:svg="http://www.w3.org/2000/svg">
  <defs
     id="defs3519" />
  <sodipodi:namedview
     id="namedview3517"
     pagecolor="#ffffff"
     bordercolor="#666666"
     borderopacity="1.0"
     inkscape:showpageshadow="2"
     inkscape:pageopacity="0.0"
     inkscape:pagecheckerboard="0"
     inkscape:deskcolor="#d1d1d1"
     showgrid="false"
     inkscape:zoom="1.6857143"
     inkscape:cx="36.18644"
     inkscape:cy="70.88983"
     inkscape:window-width="1024"
     inkscape:window-height="705"
     inkscape:window-x="-8"
     inkscape:window-y="-8"
     inkscape:window-maximized="1"
     inkscape:current-layer="svg3515" />
  <g
     id="g1925"
     transform="matrix(0.30854663,0,0,0.30854663,-24.215879,-25.780241)">
    <g
       transform="matrix(0.27453724,0,0,0.27490335,27.385016,55.592709)"
       id="g17374">
      <g
         transform="translate(0.5,-0.5)"
         id="g17372">
        <polygon
           class="st0"
           points="76.4,414.5 107.2,414.5 153.1,301.9 122.3,301.9 "
           id="polygon17360"
           style="fill:#ffb71b" />
        <polygon
           points="174.1,414.5 207.2,414.5 160.6,305.5 144.8,343.3 "
           id="polygon17362" />
        <path
           d="m 262.3,333.9 c -5.5,0 -10.5,1.1 -14.9,3.3 -4.4,2.2 -8,5.5 -10.7,9.7 V 335.8 H 213.3 V 414 h 24.1 v -43.9 c 0,-5.3 1.5,-9.6 4.5,-12.8 3,-3.2 7,-4.8 12,-4.8 4.1,0 7.2,1.2 9.2,3.7 2,2.4 2.9,6.3 2.9,11.6 v 45.9 h 24 v -47.1 c 0,-11.1 -2.3,-19.3 -6.9,-24.8 -4.6,-5.5 -11.5,-8.2 -20.9,-8.2 v 0.3 z"
           id="path17364" />
        <path
           d="m 347.6,367.9 -13.2,-3 c -3.2,-0.8 -5.4,-1.7 -6.7,-2.7 -1.3,-1 -1.9,-2.3 -1.9,-4 0,-2.3 1.1,-4.1 3.2,-5.4 2.1,-1.3 5,-1.9 8.8,-1.9 8.1,0 16.2,2.9 24.5,8.6 l 6.4,-15.9 c -4.3,-3.1 -9,-5.5 -14.3,-7.2 -5.3,-1.7 -10.8,-2.6 -16.4,-2.6 -6.6,0 -12.4,1.1 -17.6,3.2 -5.2,2.1 -9.1,5 -11.9,8.8 -2.8,3.7 -4.2,8 -4.2,12.9 0,6.2 1.8,11 5.3,14.6 3.5,3.6 9.1,6.2 16.7,7.9 l 12.8,2.9 c 3.9,0.8 6.6,1.8 8.1,2.9 1.4,1.1 2.2,2.6 2.2,4.5 0,2.1 -1,3.8 -3.1,5 -2.1,1.2 -5,1.8 -8.7,1.8 -5.2,0 -10.3,-0.8 -15.4,-2.4 -5.1,-1.6 -9.8,-3.8 -14,-6.7 l -6.4,16.6 c 4.3,3.1 9.5,5.4 15.5,7.1 6,1.6 12.6,2.5 19.8,2.5 10.5,0 18.8,-2.2 24.8,-6.5 6,-4.3 9,-10.2 9,-17.8 0,-6.3 -1.8,-11.2 -5.5,-14.9 -4,-3.8 -9.8,-6.5 -17.8,-8.3 z"
           id="path17366" />
        <path
           d="m 525.9,376.5 c -3.7,-3.7 -9.5,-6.4 -17.4,-8.2 l -13.2,-3 c -3.2,-0.8 -5.4,-1.7 -6.7,-2.7 -1.3,-1 -1.9,-2.3 -1.9,-4 0,-2.3 1.1,-4.1 3.2,-5.4 2.1,-1.3 5,-1.9 8.8,-1.9 8.1,0 16.2,2.9 24.5,8.6 l 6.4,-15.9 c -4.3,-3.1 -9,-5.5 -14.3,-7.2 -5.3,-1.7 -10.8,-2.6 -16.4,-2.6 -6.6,0 -12.4,1.1 -17.6,3.2 -5.2,2.1 -9.2,5 -12,8.8 -2.8,3.7 -4.2,8 -4.2,12.9 0,6.2 1.8,11 5.3,14.6 3.5,3.6 9.1,6.2 16.6,7.9 l 12.8,2.9 c 3.9,0.8 6.6,1.8 8.1,2.9 1.4,1.1 2.2,2.6 2.2,4.5 0,2.1 -1,3.8 -3.1,5 -2.1,1.2 -5,1.8 -8.7,1.8 -5.2,0 -10.3,-0.8 -15.4,-2.4 -5.1,-1.6 -9.8,-3.8 -14,-6.7 l -6.4,16.6 c 4.4,3.1 9.5,5.4 15.5,7.1 6,1.6 12.6,2.5 19.8,2.5 10.5,0 18.8,-2.2 24.8,-6.5 6,-4.3 9,-10.2 9,-17.8 -0.2,-6.5 -2.1,-11.5 -5.7,-15 z"
           id="path17368" />
        <polygon
           points="417.5,443 461,336.3 437.8,336.3 419,382.2 400.2,336.3 376.9,336.3 407,410.7 394.2,443 "
           id="polygon17370" />
      </g>
    </g>
    <text
       xml:space="preserve"
       style="font-weight:bold;font-size:13.9906px;line-height:1;font-family:Arial;-inkscape-font-specification:'Arial Bold';text-align:center;letter-spacing:0px;word-spacing:0px;writing-mode:lr-tb;text-anchor:middle;stroke-width:0.468947"
       x="110.93467"
       y="198.15926"
       id="text17668"
       transform="scale(0.99933385,1.0006666)"><tspan
         sodipodi:role="line"
         id="tspan17666"
         style="font-style:normal;font-variant:normal;font-weight:bold;font-stretch:normal;font-size:13.9906px;font-family:Calibri;-inkscape-font-specification:'Calibri Bold';stroke-width:0.468947"
         x="110.93467"
         y="198.15926">MECHANICAL ENTERPRISE</tspan></text>
    <path
       style="fill:none;stroke:#ffb71b;stroke-width:1.56335;stroke-linecap:butt;stroke-linejoin:miter;stroke-dasharray:none;stroke-opacity:1"
       d="m 36.03144,182.51376 h 150 z"
       id="path17694" />
  </g>
</svg>
