<?xml version="1.0" encoding="UTF-8" standalone="no"?>
<svg
   width="140"
   height="140"
   version="1.1"
   viewBox="0 0 37.042 37.042"
   id="svg12211"
   sodipodi:docname="trimble-tekla-structures-logo.svg"
   inkscape:version="1.2.1 (9c6d41e410, 2022-07-14)"
   xmlns:inkscape="http://www.inkscape.org/namespaces/inkscape"
   xmlns:sodipodi="http://sodipodi.sourceforge.net/DTD/sodipodi-0.dtd"
   xmlns="http://www.w3.org/2000/svg"
   xmlns:svg="http://www.w3.org/2000/svg">
  <defs
     id="defs12215" />
  <sodipodi:namedview
     id="namedview12213"
     pagecolor="#ffffff"
     bordercolor="#666666"
     borderopacity="1.0"
     inkscape:showpageshadow="2"
     inkscape:pageopacity="0.0"
     inkscape:pagecheckerboard="0"
     inkscape:deskcolor="#d1d1d1"
     showgrid="false"
     inkscape:zoom="1.6857143"
     inkscape:cx="52.79661"
     inkscape:cy="70.29661"
     inkscape:window-width="1024"
     inkscape:window-height="705"
     inkscape:window-x="-8"
     inkscape:window-y="-8"
     inkscape:window-maximized="1"
     inkscape:current-layer="svg12211" />
  <g
     id="g11052"
     transform="matrix(0.21816767,0,0,0.21816767,-45.908186,-18.229079)">
    <g
       id="Expanded_Logo-92"
       data-name="Expanded Logo"
       transform="matrix(0.37912741,0,0,0.38764109,210.42616,138.44927)">
      <polygon
         class="cls-2"
         points="65.18,55 100,55 114.74,0 24.74,0 72.52,27.59 "
         id="polygon15403-4"
         style="fill:#005f9e" />
      <polygon
         class="cls-2"
         points="0,55 54.82,55 60.88,32.41 13.4,5 "
         id="polygon15405-0"
         style="fill:#005f9e" />
      <polygon
         class="cls-2"
         points="7.32,65 52.63,65 46.66,87.71 "
         id="polygon15407-8"
         style="fill:#005f9e" />
    </g>
    <g
       id="g10907"
       transform="matrix(1,0,0,1.0181818,0,-2.8263475)">
      <path
         class="cls-1"
         d="m 272.36667,168.775 v -22.83298 h -8.89679 v -4.24275 h 22.67166 v 4.24275 h -8.89679 V 168.775 Z"
         id="path15370-6"
         style="fill:#363545;stroke-width:0.401991" />
      <path
         class="cls-1"
         d="m 285.53457,159.09843 c 0,-7.39561 5.5797,-10.10085 9.87241,-10.10085 4.64559,0 9.09191,2.60014 9.09191,10.50955 v 1.06263 h -14.16512 c 0.19513,3.50319 2.49094,5.06016 5.54233,5.06016 2.69436,0 4.25535,-0.84077 5.81218,-2.26928 l 2.53661,2.33545 c -2.14636,2.23036 -4.98187,3.50318 -8.71828,3.50318 -5.17284,-0.0234 -9.97204,-2.98549 -9.97204,-10.10084 z m 14.55536,-1.90341 c -0.274,-2.96213 -1.83498,-4.53856 -4.72032,-4.53856 -2.34147,0 -4.48783,1.24558 -4.95696,4.53856 z"
         id="path15372-4"
         style="fill:#363545;stroke-width:0.401991" />
      <path
         class="cls-1"
         d="m 309.41764,168.775 v -27.07573 h 4.79506 v 16.13411 l 7.84644,-8.48938 h 5.26833 l -6.75044,7.09979 7.33581,12.33121 H 322.877 l -5.34306,-9.00319 -3.32124,3.402 v 5.60119 z"
         id="path15374-2"
         style="fill:#363545;stroke-width:0.401991" />
      <path
         class="cls-1"
         d="m 332.03034,168.775 v -27.07573 h 4.83657 V 168.775 Z"
         id="path15376-5"
         style="fill:#363545;stroke-width:0.401991" />
      <path
         class="cls-1"
         d="m 341.59885,164.08851 c 0,-4.20771 3.82358,-7.00636 13.50086,-8.04565 v -0.58775 c 0,-1.94621 -1.09186,-2.77919 -3.39182,-2.77919 -2.90609,0 -5.23096,1.31565 -6.98707,2.63518 l -2.34148,-2.8298 a 14.833516,13.907642 0 0 1 9.98865,-3.50318 c 5.54233,0 7.4728,2.49115 7.4728,7.00636 v 8.03397 c 0,2.33546 0.15361,3.76787 0.58537,4.75655 h -4.85732 a 7.5143194,7.0452927 0 0 1 -0.46913,-2.49115 c -2.10484,2.01238 -4.56671,2.78308 -7.64717,2.78308 -3.35446,0 -5.85369,-1.75548 -5.85369,-4.97842 z m 13.50086,-0.73177 v -4.25831 c -5.7333,0.73178 -8.78054,2.04741 -8.78054,4.16879 0,1.55697 1.13337,2.33545 2.90609,2.33545 a 8.2657513,7.749822 0 0 0 5.87445,-2.24593 z"
         id="path15378-35"
         style="fill:#363545;stroke-width:0.401991" />
      <path
         class="cls-1"
         d="m 272.36667,168.775 v -22.83298 h -8.89679 v -4.24275 h 22.67166 v 4.24275 h -8.89679 V 168.775 Z"
         id="path15370-6-8"
         style="fill:#363545;stroke-width:0.401991" />
      <path
         class="cls-1"
         d="m 285.53457,159.09843 c 0,-7.39561 5.5797,-10.10085 9.87241,-10.10085 4.64559,0 9.09191,2.60014 9.09191,10.50955 v 1.06263 h -14.16512 c 0.19513,3.50319 2.49094,5.06016 5.54233,5.06016 2.69436,0 4.25535,-0.84077 5.81218,-2.26928 l 2.53661,2.33545 c -2.14636,2.23036 -4.98187,3.50318 -8.71828,3.50318 -5.17284,-0.0234 -9.97204,-2.98549 -9.97204,-10.10084 z m 14.55536,-1.90341 c -0.274,-2.96213 -1.83498,-4.53856 -4.72032,-4.53856 -2.34147,0 -4.48783,1.24558 -4.95696,4.53856 z"
         id="path15372-4-4"
         style="fill:#363545;stroke-width:0.401991" />
      <path
         class="cls-1"
         d="m 309.41764,168.775 v -27.07573 h 4.79506 v 16.13411 l 7.84644,-8.48938 h 5.26833 l -6.75044,7.09979 7.33581,12.33121 H 322.877 l -5.34306,-9.00319 -3.32124,3.402 v 5.60119 z"
         id="path15374-2-9"
         style="fill:#363545;stroke-width:0.401991" />
      <path
         class="cls-1"
         d="m 332.03034,168.775 v -27.07573 h 4.83657 V 168.775 Z"
         id="path15376-5-9"
         style="fill:#363545;stroke-width:0.401991" />
      <path
         class="cls-1"
         d="m 341.59885,164.08851 c 0,-4.20771 3.82358,-7.00636 13.50086,-8.04565 v -0.58775 c 0,-1.94621 -1.09186,-2.77919 -3.39182,-2.77919 -2.90609,0 -5.23096,1.31565 -6.98707,2.63518 l -2.34148,-2.8298 a 14.833516,13.907642 0 0 1 9.98865,-3.50318 c 5.54233,0 7.4728,2.49115 7.4728,7.00636 v 8.03397 c 0,2.33546 0.15361,3.76787 0.58537,4.75655 h -4.85732 a 7.5143194,7.0452927 0 0 1 -0.46913,-2.49115 c -2.10484,2.01238 -4.56671,2.78308 -7.64717,2.78308 -3.35446,0 -5.85369,-1.75548 -5.85369,-4.97842 z m 13.50086,-0.73177 v -4.25831 c -5.7333,0.73178 -8.78054,2.04741 -8.78054,4.16879 0,1.55697 1.13337,2.33545 2.90609,2.33545 a 8.2657513,7.749822 0 0 0 5.87445,-2.24593 z"
         id="path15378-35-3"
         style="fill:#363545;stroke-width:0.401991" />
    </g>
    <g
       id="g10085"
       transform="translate(353.17252,387.54837)">
      <g
         id="g10038"
         transform="matrix(1,0,0,0.9991666,0,-0.17592991)">
        <path
           class="cls-1"
           d="m -141.46673,-194.709 1.87624,-0.65845 c 0.9825,2.95082 3.21687,4.46891 6.31648,4.46891 3.3056,0 5.45125,-1.46017 5.45125,-3.84095 0,-2.20396 -1.10293,-3.32271 -5.77769,-4.75545 -4.73815,-1.43273 -7.15001,-2.66426 -7.15001,-6.16074 0,-3.04837 2.83021,-5.44439 6.84892,-5.44439 4.14231,0 6.52565,2.03631 7.56835,4.87739 l -1.78749,0.80477 c -1.10293,-2.74353 -3.0394,-3.84095 -5.80939,-3.84095 -2.94747,0 -4.73498,1.52419 -4.73498,3.46599 0,2.37774 1.4579,3.1825 6.10414,4.61523 4.58918,1.40225 6.85208,2.86547 6.85208,6.30402 0,3.52392 -3.24539,5.7919 -7.65392,5.7919 -4.14232,-0.0122 -7.06127,-2.19787 -8.10398,-5.62728 z"
           id="path15383-0"
           style="fill:#363545;stroke-width:0.310826" />
        <path
           class="cls-1"
           d="m -120.19036,-193.0202 v -9.88281 h -2.7288 v -1.69185 h 2.74147 v -5.4139 h 2.0569 v 5.4139 h 4.07575 v 1.69185 h -4.08843 v 9.48957 c 0,1.60344 0.53562,2.46307 2.47207,2.46307 a 5.4702628,5.2614802 0 0 0 1.63855,-0.20119 v 1.70099 a 12.585408,12.105063 0 0 1 -2.0252,0.1707 c -3.01086,-0.0152 -4.14231,-1.13093 -4.14231,-3.74033 z"
           id="path15385-1"
           style="fill:#363545;stroke-width:0.310826" />
        <path
           class="cls-1"
           d="m -109.97813,-204.59486 h 2.06324 v 2.98131 h 0.0571 c 1.21069,-1.85951 3.11229,-3.26785 6.2214,-3.26785 h 0.35814 l -0.20919,1.82902 -0.63386,-0.0305 c -2.56399,0 -4.58919,1.37482 -5.80938,3.75559 v 9.82794 h -2.0569 z"
           id="path15387-4"
           style="fill:#363545;stroke-width:0.310826" />
        <path
           class="cls-1"
           d="m -97.556866,-193.67865 v -10.91621 h 2.056895 v 10.57174 c 0,2.13386 0.950798,3.15201 3.128128,3.15201 1.996678,0 3.695439,-1.03034 5.451247,-2.63378 v -11.08997 h 2.085419 v 15.10161 h -2.085419 v -2.38077 c -1.518108,1.43273 -3.514786,2.69475 -5.95834,2.69475 -3.128127,0 -4.67793,-1.69184 -4.67793,-4.49938 z"
           id="path15389-23"
           style="fill:#363545;stroke-width:0.310826" />
        <path
           class="cls-1"
           d="m -80.305547,-197.02881 c 0,-5.41695 3.486262,-7.85259 7.001048,-7.85259 3.365828,0 5.032896,1.92047 6.021726,4.12749 l -1.749469,0.7438 c -0.865227,-2.03326 -2.117112,-3.17944 -4.319797,-3.17944 -2.323118,0 -4.887106,1.60344 -4.887106,6.13026 0,3.96287 2.085419,6.18818 4.82689,6.18818 2.174159,0 3.397521,-0.97242 4.497278,-3.20688 l 1.670236,0.68589 c -1.267732,2.55147 -3.067911,4.21283 -6.256256,4.21283 -3.619374,0 -6.80455,-2.83803 -6.80455,-7.84954 z"
           id="path15391-30"
           style="fill:#363545;stroke-width:0.310826" />
        <path
           class="cls-1"
           d="m -61.796005,-193.0202 v -9.88281 h -2.74147 v -1.69185 h 2.74147 v -5.4139 h 2.063234 v 5.4139 h 4.082096 v 1.69185 h -4.082096 v 9.48957 c 0,1.60344 0.535616,2.46307 2.472077,2.46307 a 5.4702628,5.2614802 0 0 0 1.638543,-0.20119 v 1.70099 a 12.518852,12.041046 0 0 1 -2.025202,0.1707 c -3.017201,-0.0152 -4.148652,-1.13093 -4.148652,-3.74033 z"
           id="path15393-7"
           style="fill:#363545;stroke-width:0.310826" />
        <path
           class="cls-1"
           d="m -51.669339,-193.67865 v -10.91621 h 2.056894 v 10.57174 c 0,2.13386 0.9508,3.15201 3.128129,3.15201 1.993508,0 3.692269,-1.03034 5.451247,-2.63378 v -11.08997 h 2.085418 v 15.10161 h -2.085418 v -2.38077 c -1.521279,1.43273 -3.514787,2.69475 -5.95834,2.69475 -3.124959,0 -4.67793,-1.69184 -4.67793,-4.49938 z"
           id="path15395-9"
           style="fill:#363545;stroke-width:0.310826" />
        <path
           class="cls-1"
           d="m -33.597164,-204.59486 h 2.053725 v 2.98131 h 0.06022 c 1.223361,-1.86255 3.128128,-3.26785 6.227733,-3.26785 h 0.358134 l -0.209176,1.82902 -0.633865,-0.0305 c -2.560819,0 -4.586021,1.37482 -5.809382,3.75559 v 9.82794 H -33.6035 Z"
           id="path15397-40"
           style="fill:#363545;stroke-width:0.310826" />
        <path
           class="cls-1"
           d="m -21.806601,-197.38547 c 0,-5.35597 3.575004,-7.8221 6.883784,-7.8221 3.663745,0 6.4052149,2.69475 6.4052149,7.85259 v 0.37189 H -19.749706 c 0.02852,3.72511 2.234377,5.81629 4.944154,5.81629 2.354812,0 3.695438,-0.97243 4.8871063,-2.74353 l 1.2677318,0.97243 c -1.3691511,2.13385 -3.3056101,3.43856 -6.2847801,3.43856 -3.651068,-0.0214 -6.871107,-2.74353 -6.871107,-7.88613 z m 11.292321,-1.17362 c -0.209175,-2.86546 -1.638543,-4.98408 -4.437061,-4.98408 -2.262902,0 -4.376844,1.57296 -4.753994,4.98408 z"
           id="path15412-03"
           style="fill:#363545;stroke-width:0.310826" />
        <path
           class="cls-1"
           d="m -5.0084965,-192.24287 1.3089332,-1.14619 a 6.1326527,5.8985887 0 0 0 4.8871065,2.17958 c 2.6812523,0 4.0820964,-0.94499 4.0820964,-2.63683 0,-1.69185 -1.2518853,-2.31981 -4.31979644,-3.00874 -3.60669706,-0.85964 -5.45124686,-1.7772 -5.45124686,-4.41404 0,-2.13385 1.9364605,-3.96287 5.33081199,-3.96287 2.68125331,0 4.40853771,0.85964 5.80938091,2.17958 l -1.1631432,1.31689 a 6.2594259,6.0205233 0 0 0 -4.58602027,-1.86255 c -2.44355333,0 -3.39752123,1.08827 -3.39752123,2.23446 0,1.46321 1.0744028,2.06374 3.8031956,2.69475 3.9331377,0.91452 5.9583396,1.82902 5.9583396,4.78594 0,2.74353 -2.5608184,4.32563 -6.1072984,4.32563 -2.7731634,0.009 -4.9631698,-1.1218 -6.1548378,-2.68561 z"
           id="path15414-1"
           style="fill:#363545;stroke-width:0.310826" />
        <path
           class="cls-1"
           d="m -141.46673,-194.709 1.87624,-0.65845 c 0.9825,2.95082 3.21687,4.46891 6.31648,4.46891 3.3056,0 5.45125,-1.46017 5.45125,-3.84095 0,-2.20396 -1.10293,-3.32271 -5.77769,-4.75545 -4.73815,-1.43273 -7.15001,-2.66426 -7.15001,-6.16074 0,-3.04837 2.83021,-5.44439 6.84892,-5.44439 4.14231,0 6.52565,2.03631 7.56835,4.87739 l -1.78749,0.80477 c -1.10293,-2.74353 -3.0394,-3.84095 -5.80939,-3.84095 -2.94747,0 -4.73498,1.52419 -4.73498,3.46599 0,2.37774 1.4579,3.1825 6.10414,4.61523 4.58918,1.40225 6.85208,2.86547 6.85208,6.30402 0,3.52392 -3.24539,5.7919 -7.65392,5.7919 -4.14232,-0.0122 -7.06127,-2.19787 -8.10398,-5.62728 z"
           id="path15383-0-0"
           style="fill:#363545;stroke-width:0.310826" />
        <path
           class="cls-1"
           d="m -120.19036,-193.0202 v -9.88281 h -2.7288 v -1.69185 h 2.74147 v -5.4139 h 2.0569 v 5.4139 h 4.07575 v 1.69185 h -4.08843 v 9.48957 c 0,1.60344 0.53562,2.46307 2.47207,2.46307 a 5.4702628,5.2614802 0 0 0 1.63855,-0.20119 v 1.70099 a 12.585408,12.105063 0 0 1 -2.0252,0.1707 c -3.01086,-0.0152 -4.14231,-1.13093 -4.14231,-3.74033 z"
           id="path15385-1-7"
           style="fill:#363545;stroke-width:0.310826" />
        <path
           class="cls-1"
           d="m -109.97813,-204.59486 h 2.06324 v 2.98131 h 0.0571 c 1.21069,-1.85951 3.11229,-3.26785 6.2214,-3.26785 h 0.35814 l -0.20919,1.82902 -0.63386,-0.0305 c -2.56399,0 -4.58919,1.37482 -5.80938,3.75559 v 9.82794 h -2.0569 z"
           id="path15387-4-3"
           style="fill:#363545;stroke-width:0.310826" />
        <path
           class="cls-1"
           d="m -97.556866,-193.67865 v -10.91621 h 2.056895 v 10.57174 c 0,2.13386 0.950798,3.15201 3.128128,3.15201 1.996678,0 3.695439,-1.03034 5.451247,-2.63378 v -11.08997 h 2.085419 v 15.10161 h -2.085419 v -2.38077 c -1.518108,1.43273 -3.514786,2.69475 -5.95834,2.69475 -3.128127,0 -4.67793,-1.69184 -4.67793,-4.49938 z"
           id="path15389-23-0"
           style="fill:#363545;stroke-width:0.310826" />
        <path
           class="cls-1"
           d="m -80.305547,-197.02881 c 0,-5.41695 3.486262,-7.85259 7.001048,-7.85259 3.365828,0 5.032896,1.92047 6.021726,4.12749 l -1.749469,0.7438 c -0.865227,-2.03326 -2.117112,-3.17944 -4.319797,-3.17944 -2.323118,0 -4.887106,1.60344 -4.887106,6.13026 0,3.96287 2.085419,6.18818 4.82689,6.18818 2.174159,0 3.397521,-0.97242 4.497278,-3.20688 l 1.670236,0.68589 c -1.267732,2.55147 -3.067911,4.21283 -6.256256,4.21283 -3.619374,0 -6.80455,-2.83803 -6.80455,-7.84954 z"
           id="path15391-30-4"
           style="fill:#363545;stroke-width:0.310826" />
        <path
           class="cls-1"
           d="m -61.796005,-193.0202 v -9.88281 h -2.74147 v -1.69185 h 2.74147 v -5.4139 h 2.063234 v 5.4139 h 4.082096 v 1.69185 h -4.082096 v 9.48957 c 0,1.60344 0.535616,2.46307 2.472077,2.46307 a 5.4702628,5.2614802 0 0 0 1.638543,-0.20119 v 1.70099 a 12.518852,12.041046 0 0 1 -2.025202,0.1707 c -3.017201,-0.0152 -4.148652,-1.13093 -4.148652,-3.74033 z"
           id="path15393-7-1"
           style="fill:#363545;stroke-width:0.310826" />
        <path
           class="cls-1"
           d="m -51.669339,-193.67865 v -10.91621 h 2.056894 v 10.57174 c 0,2.13386 0.9508,3.15201 3.128129,3.15201 1.993508,0 3.692269,-1.03034 5.451247,-2.63378 v -11.08997 h 2.085418 v 15.10161 h -2.085418 v -2.38077 c -1.521279,1.43273 -3.514787,2.69475 -5.95834,2.69475 -3.124959,0 -4.67793,-1.69184 -4.67793,-4.49938 z"
           id="path15395-9-1"
           style="fill:#363545;stroke-width:0.310826" />
        <path
           class="cls-1"
           d="m -33.597164,-204.59486 h 2.053725 v 2.98131 h 0.06022 c 1.223361,-1.86255 3.128128,-3.26785 6.227733,-3.26785 h 0.358134 l -0.209176,1.82902 -0.633865,-0.0305 c -2.560819,0 -4.586021,1.37482 -5.809382,3.75559 v 9.82794 H -33.6035 Z"
           id="path15397-40-3"
           style="fill:#363545;stroke-width:0.310826" />
        <path
           class="cls-1"
           d="m -21.806601,-197.38547 c 0,-5.35597 3.575004,-7.8221 6.883784,-7.8221 3.663745,0 6.4052149,2.69475 6.4052149,7.85259 v 0.37189 H -19.749706 c 0.02852,3.72511 2.234377,5.81629 4.944154,5.81629 2.354812,0 3.695438,-0.97243 4.8871063,-2.74353 l 1.2677318,0.97243 c -1.3691511,2.13385 -3.3056101,3.43856 -6.2847801,3.43856 -3.651068,-0.0214 -6.871107,-2.74353 -6.871107,-7.88613 z m 11.292321,-1.17362 c -0.209175,-2.86546 -1.638543,-4.98408 -4.437061,-4.98408 -2.262902,0 -4.376844,1.57296 -4.753994,4.98408 z"
           id="path15412-03-3"
           style="fill:#363545;stroke-width:0.310826" />
        <path
           class="cls-1"
           d="m -5.0084965,-192.24287 1.3089332,-1.14619 a 6.1326527,5.8985887 0 0 0 4.8871065,2.17958 c 2.6812523,0 4.0820964,-0.94499 4.0820964,-2.63683 0,-1.69185 -1.2518853,-2.31981 -4.31979644,-3.00874 -3.60669706,-0.85964 -5.45124686,-1.7772 -5.45124686,-4.41404 0,-2.13385 1.9364605,-3.96287 5.33081199,-3.96287 2.68125331,0 4.40853771,0.85964 5.80938091,2.17958 l -1.1631432,1.31689 a 6.2594259,6.0205233 0 0 0 -4.58602027,-1.86255 c -2.44355333,0 -3.39752123,1.08827 -3.39752123,2.23446 0,1.46321 1.0744028,2.06374 3.8031956,2.69475 3.9331377,0.91452 5.9583396,1.82902 5.9583396,4.78594 0,2.74353 -2.5608184,4.32563 -6.1072984,4.32563 -2.7731634,0.009 -4.9631698,-1.1218 -6.1548378,-2.68561 z"
           id="path15414-1-1"
           style="fill:#363545;stroke-width:0.310826" />
      </g>
    </g>
  </g>
</svg>
