<svg width="140" height="140" version="1.1" viewBox="0 0 37.042 37.042" xmlns="http://www.w3.org/2000/svg"><defs><clipPath id="clipPath18"><path d="M 0,841.89 H 1190.55 V 0 H 0 Z"/></clipPath></defs><g transform="translate(0 -259.96)"><g transform="matrix(.11668 0 0 -.11668 -52.581 327.56)"><g clip-path="url(#clipPath18)"><g transform="translate(650.22 267.19)"><path d="m0 0c-7.547 0.053-13.639 6.215-13.639 13.735 0 7.574 6.092 13.789 13.639 13.789 7.548 0 13.742-6.164 13.742-13.789 0-7.572-6.194-13.735-13.742-13.735m0 32.798c-10.462 0-18.999-8.564-18.999-19.063 0-10.496 8.537-19.01 18.999-19.01 10.463 0 18.947 8.514 18.947 19.01 0 10.499-8.484 19.063-18.947 19.063" fill="#0057a5"/></g><g transform="translate(619.59 274.62)"><path d="m0 0-26.338 24.846v-37.029h5.256v24.596l26.393-24.596v37.029h-5.311z" fill="#0057a5"/></g><g transform="translate(568.59 267.71)"><path d="m0 0h-7.965v26.479h7.965c7.287 0 13.168-5.954 13.168-13.266 0-7.259-5.881-13.213-13.168-13.213m0 31.754h-13.223v-37.029h13.223c10.462 0 18.373 8.304 18.426 18.488 0 10.184-8.226 18.541-18.426 18.541" fill="#0057a5"/></g><g transform="translate(693.88 267.21)"><path d="m0 0c-7.282 0-13.679 6.158-13.679 13.725 0 7.619 6.449 13.778 13.679 13.778 3.64 0 6.865-1.358 9.257-3.758l2.663 4.646c-3.178 2.83-7.334 4.382-11.92 4.382-10.61 0-18.984-8.558-18.984-19.048 0-10.489 8.53-18.996 18.933-18.996 4.589 0 8.835 1.641 12.069 4.413l-2.656 4.615c-2.393-2.4-5.774-3.757-9.362-3.757" fill="#0057a5"/></g><g transform="translate(531.31 299.53)"><path d="m0 0-18.478-37.095h5.83l12.648 26.041 6.304-12.979h-10.947l-0.12-0.258c0.016-1e-3 0.076-8e-3 0.171-0.022 7.21-0.513 13.349-4.878 16.379-11.05l0.844-1.732h5.795z" fill="#0057a5"/></g><path d="m697.71 317.86h5.303v37.025h-5.303z" fill="#0057a5"/><g transform="translate(700.47 364.03)"><path d="m0 0c-0.766 0.446-1.15 1.274-1.15 2.359 0 1.212 0.831 2.424 2.17 2.424 0.954 0 1.593-0.447 1.785-1.404l2.297 1.212c-0.893 1.85-2.232 2.808-4.02 2.808-2.74 0-4.975-2.17-4.975-5.167 0-0.32 0.192-1.02 0.576-2.232h-2.554v-2.935h11.035v2.935z" fill="#0057a5"/></g><g transform="translate(512.85 333.68)"><path d="m0 0c-1e-3 -0.072-7e-3 -0.142-7e-3 -0.214 0-8.58 7.48-15.625 16.082-15.625h25.688v37.029h-5.279v-31.82h-20.51c-5.751 0-10.84 4.645-10.84 10.416 0 0.072 5e-3 0.142 6e-3 0.214z" fill="#0057a5"/></g><g transform="translate(663.3 323.11)"><path d="m0 0v-5.258h28.237v10.846c0 8.582-6.766 15.073-15.065 15.116-2.269 0-4.426-0.505-6.364-1.41l2.639-4.685c1.144 0.486 2.402 0.756 3.722 0.756 5.215 0 9.494-4.254 9.494-9.525v-5.837z" fill="#0057a5"/></g><g transform="translate(528.7 337.08)"><path d="m0 0h11.035v2.935h-5.164c-0.766 0.447-1.15 1.274-1.15 2.359 0 1.212 0.831 2.424 2.17 2.424 0.954 0 1.593-0.446 1.785-1.404l2.297 1.212c-0.893 1.851-2.232 2.808-4.02 2.808-2.74 0-4.975-2.169-4.975-5.167 0-0.319 0.192-1.02 0.576-2.232h-2.554z" fill="#0057a5"/></g><path d="m657.07 350.82h-5.271v-5.271h5.271z" fill="#0057a5"/><g transform="translate(576.86 323.06)"><path d="m0 0h-4.268c-3.905 0-7.057 3.191-7.057 7.109 0 3.889 3.152 7.08 7.057 7.08h4.268zm-2.36-13.856 0.012-0.021 3.535-3.207c2.294 2.603 3.712 6.033 3.712 9.757v2.092h67.371c5.255 0 7.884 2.827 7.884 8.526v16.161h-5.257v-14.173c0-1.696-0.14-3.128-0.375-3.694-0.517-1.036-1.595-1.553-3.333-1.553h-65.892v19.42h-9.214c-6.974 0-12.248-5.536-12.284-12.326 0-6.789 5.484-12.361 12.284-12.361h3.979v-2.477c0-2.104-0.917-4.405-2.422-6.144" fill="#0057a5"/></g><g transform="translate(673.55 420.72)"><path d="m0 0c-2.926-12.268-8.918-22.941-17.46-31.547h46.889c8.891 48.587-23.116 100.56-75.507 111.77 10.696-2.938 56.65-24.513 46.078-80.22" fill="#0057a5"/></g><g transform="translate(512.83 579.37)"><path d="m0 0v-190.19l20.27-8e-3c12.302 0.03 15.147-0.25 21.87 0.804 28.998 4.228 55.517 27.831 58.381 48.69 4.288 24.697-9.149 46.338-34.946 51.711-0.458 0.096-0.96 0.24-1.494 0.424-0.918-0.012-13.493-0.13-23.184 2.459-0.12-0.103-5.565-4.411-3.331-12.674 0 0-12.919 13.482-4.709 31.603 0 0 3.978 8.545 17.483 17.286 0.104 0.123 0.209 0.247 0.313 0.37 3.614 4.288 12.278 11.851 24.851 17.823 6.416 2.885 17.43 7.023 29.763 8.08 56.249 5.232 84.881-37.81 84.881-37.81v61.434z" fill="#0057a5"/></g><g transform="translate(650.96 534.39)"><path d="m0 0c-27.223 3.632-50.114-3.411-68.168-15.988-1e-3 -9e-3 5.304 3.043 13.482 5.969 1.204-5.232 5.603-9.64 11.542-10.876 7.949-1.654 15.639 2.996 17.176 10.386 0.418 2.008 0.337 4.011-0.16 5.898 51.993 1.579 78.143-38.077 78.143-38.077l7e-3 16.595v0.514c-7.927 8.014-27.613 22.869-52.022 25.579" fill="#0057a5"/></g></g></g></g></svg>
