<svg width="140" height="140" version="1.1" xmlns="http://www.w3.org/2000/svg"><g transform="translate(-90.012 -510.75)"><path d="m156.15 615.81c-4.6426-0.12242-9.7624-0.53097-14.294-1.1407-19.295-2.5959-35.463-9.2122-44.464-18.195-3.8169-3.8094-6.2357-7.9947-7.0514-12.202-0.26564-1.37-0.32824-2.0413-0.32824-3.5194s0.06261-2.1494 0.32824-3.5194c0.53618-2.7654 1.8096-5.6167 3.6886-8.2592 4.2494-5.9761 11.706-11.297 21.49-15.333 16.306-6.7283 37.658-9.3935 58.449-7.296 24.407 2.4623 44.485 11.369 52.453 23.268 3.6424 5.4397 4.5346 11.348 2.5858 17.122-1.1254 3.3346-3.3119 6.667-6.39 9.739-8.5283 8.5114-23.537 14.93-41.552 17.769-8.057 1.2699-16.363 1.7923-24.913 1.5669zm10.644-4.491c9.7693-0.60476 18.019-2.0407 26.058-4.5358 6.3785-1.9797 12.324-4.7204 16.889-7.785 2.3004-1.5444 3.896-2.8478 5.7008-4.6565 2.1432-2.148 3.5262-4.0326 4.6523-6.3397 1.2597-2.5808 1.7474-4.6041 1.7474-7.2489 0-2.6602-0.51963-4.7912-1.7955-7.3633-1.1033-2.2242-2.5107-4.1272-4.6041-6.2252-3.0744-3.0812-6.7265-5.6222-11.553-8.0385-9.0358-4.5232-20.341-7.4825-32.935-8.6212-6.9757-0.63074-14.901-0.63105-21.899-8.4e-4 -17.707 1.5944-32.906 6.8504-42.311 14.631-1.1929 0.98692-3.3194 3.1338-4.2107 4.2512-3.187 3.9951-4.6915 8.3059-4.3487 12.46 0.3735 4.5255 2.4115 8.5161 6.3815 12.496 3.0072 3.0146 6.5828 5.5201 11.233 7.8713 10.589 5.3541 23.6 8.4225 38.902 9.1746 1.7283 0.0849 10.41 0.0358 12.094-0.0685zm-49.636-12.82c-0.0839-0.0349-0.22129-0.13975-0.30522-0.23304-0.15147-0.16837-0.15275-0.29099-0.17221-16.506l-0.0196-16.336-0.20209-0.21093c-0.19109-0.19947-0.24393-0.2121-0.97235-0.23254l-0.77027-0.0216v-2.0602l11.089-0.0392 0.23535 0.19803 0.23536 0.19804v5.8898c0 6.4711-0.0174 6.229 0.44788 6.229 0.28878 0 0.38882-0.12039 1.9973-2.4036 4.2611-6.0484 6.605-9.338 6.8165-9.5664 0.521-0.56289 0.28483-0.54034 5.6783-0.5422l4.8297-2e-3 0.18418 0.18418c0.22633 0.22633 0.3116 0.53536 0.20865 0.75617-0.0653 0.14008-2.1549 3.2429-9.4522 14.035-0.79666 1.1782-1.0192 1.5621-1.0172 1.755 2e-3 0.20007 0.52029 0.97772 2.7328 4.1002 9.7775 13.799 9.8088 13.844 9.839 14.123 0.0227 0.2097-0.0151 0.32598-0.16135 0.49598l-0.19098 0.22205-5.0439 0.0207c-4.9732 0.0204-5.0491 0.0185-5.4152-0.13906-0.20423-0.0879-0.45649-0.25168-0.56057-0.36405-0.10408-0.11236-2.4033-3.3118-5.1093-7.1098-2.706-3.798-4.9749-6.9509-5.042-7.0064-0.18821-0.1558-0.53228-0.0814-0.64327 0.13905-0.075 0.14905-0.0963 1.7039-0.0971 7.1111l-1e-3 6.9203-0.18411 0.21409-0.18412 0.2141-4.2988 0.0152c-2.3643 8e-3 -4.3674-0.0134-4.4514-0.0482zm38.303-0.0344c-0.12693-0.0558-0.27286-0.19387-0.32429-0.30677-0.0729-0.16-0.0935-3.7902-0.0935-16.46v-16.255l-0.22304-0.22304c-0.21547-0.21546-0.24786-0.22304-0.9538-0.22304h-0.73076v-2.1365h11.291l0.49838 0.4453v34.804l-0.21153 0.21158-0.21153 0.21156-4.4049 0.0171c-3.5283 0.0136-4.4508-3e-3 -4.6356-0.0845zm16.407 0.0134c-0.23704-0.13595-0.3383-0.30579-0.34094-0.57186-1e-3 -0.1344 1.0818-3.4822 2.4071-7.4396 1.3252-3.9574 3.4329-10.251 4.6838-13.986 1.2508-3.7351 2.5701-7.6638 2.9318-8.7304s0.65755-2.0328 0.65755-2.1471c0-0.11428-0.0655-0.28885-0.1456-0.38793-0.13048-0.16143-0.22357-0.1841-0.89657-0.21829l-0.75098-0.0381-0.0424-2.0984 6.7741 8.4e-4c4.4468 0 6.8721 0.0276 7.0594 0.0796 0.1569 0.0436 0.32313 0.15 0.36942 0.2365 0.0954 0.17824 0.85503 2.424 4.4355 13.113 5.8248 17.389 7.1566 21.402 7.1566 21.566 0 0.26884-0.15111 0.53657-0.35538 0.62964-0.12917 0.0589-1.4836 0.0847-4.4363 0.0846-3.8958-7e-5 -4.2722-0.0113-4.512-0.13353-0.1439-0.0734-0.3248-0.21969-0.40199-0.32515-0.0772-0.10545-0.66905-1.8395-1.3153-3.8534-6.1597-19.197-5.9892-18.673-6.1276-18.827-0.15295-0.17048-0.26943-0.16887-0.42761 6e-3 -0.12578 0.13899-0.363 0.86889-3.7117 11.421-0.97226 3.0636-2.0204 6.3599-2.3292 7.3252-0.30882 0.96525-0.70467 2.2099-0.87966 2.766-0.34406 1.0933-0.49615 1.354-0.88468 1.5163-0.33526 0.14008-8.6744 0.15229-8.9172 0.013z" fill="#c41230" stroke-width=".41928"/></g></svg>
