<svg width="140" height="140" version="1.1" viewBox="0 0 37.042 37.042" xmlns="http://www.w3.org/2000/svg"><defs><style type="text/css"><![CDATA[
    .fil1 {fill:#D2D3D5}
    .fil0 {fill:#0068A7}
    .fil2 {fill:#0068A7;fill-rule:nonzero}
   ]]></style></defs><g transform="translate(0 -259.96)"><g transform="matrix(.13381 0 0 -.13381 2.0714e-7 297)"><g transform="scale(.1)"><g fill="#a31b24"><path d="m2120.3 601.2c-27.02-14.64-44.87-41.988-53.68-70.84-15.83-49.66-12.84-102.42-13.15-153.83 0.53-36.48-1.41-73.191 3.99-109.43 4.1-28.813 12.18-57.993 29.18-82.051 18.57-25.551 48.3-40.051 78.42-47.11 39.64-10.191 80.86-9.3 121.47-9.332 36.79 0.11 74-0.937 110.29 6.2 27.04 5.062 54.2 14.121 75.71 31.832 18.19 15.48 29.67 37.347 36.48 59.941 8.78 27.648 11.19 56.738 12.54 85.559-35.6-0.051-71.19 0-106.77-0.032-1.35-18.597-0.08-39.218-11.98-54.918-12.46-17.269-34.94-23.082-55.23-23.171-40.58 0.031-81.14-0.11-121.72 0.089-20.34 0.223-42.6 6.692-54.84 24.082-10.54 14.008-10.93 32.36-11.29 49.141-0.42 47.027-0.5 94.059 0.19 141.09 0.92 16.578 0.94 34.719 11.1 48.777 11.46 16.582 32.42 23.641 51.88 23.86 39.67 0.582 79.34 0.082 119.01 0.312 20.84 0.348 44.43-2.973 58.99-19.519 14.31-16.114 13.45-39.032 14.17-59.211h106.58c-1.77 42.238-6.67 86.39-29.32 123.13-16.52 26.851-45.78 43.019-75.52 51.07-52.32 14.34-107.15 10.742-160.8 11.07-46.15-0.469-94.54-3.789-135.7-26.711zm-586.45 5.262c-28.38-12.539-50.11-37.902-60.13-67.07-19.9-52.852-15.78-110.23-16.33-165.63 0.28-42.934-1.72-86.481 8.06-128.64 7.25-34.07 23.75-68.461 54.42-87.223 40.61-24.058 89.16-28.738 135.42-29.097 36.98 0.359 74.02-0.992 110.95 1.469 36.54 3.429 74.66 10.378 105 32.421 25.69 18.758 39.06 49.52 46.04 79.661 12.2 54.929 7.3 111.51 8.5 167.26-71.12 0.5-142.26 0.082-213.38 0.2-0.03-35.411 0-70.821 0-106.22 35.35-0.031 70.67 0.031 106.02-0.031-1.05-16.219-1.63-34.098-12.45-47.309-12.46-16.281-34-22.012-53.65-22.031-38.79-0.059-77.57 0-116.35-0.028-16.58 0.047-34.13 1.938-48.11 11.598-14.84 9.691-22.9 27.492-23.42 44.84-1.86 47.043-0.53 94.101-0.83 141.1 1.57 21.59-1.8 45.481 10.63 64.532 11.4 17.707 33.38 24.828 53.56 25.047 37.84 0.531 75.71 0.031 113.56 0.222 21.92 0.688 46.86-1.601 62.67-18.711 13.59-13.871 14.25-34.441 14.81-52.648 35.51-0.09 71.06 0 106.6-0.063-2.77 44.379-8.88 92.02-37.92 127.7-17.3 21.152-43.41 32.5-69.1 39.863-49.55 13.18-101.31 10.019-152.06 10.488-44.79-0.301-91.21-2.519-132.51-21.699m-655.55 21.039c0.277-164.35-0.578-328.73 0.418-493.05 35.129 0.641 70.258 0.11 105.41 0.25v255.73c0.305 15.781 1.91 31.718 6.836 46.75 10.19 32.718 34.88 60.351 65.91 74.718 26.94 12.454 57.64 13.512 86.65 9.961 31.56-3.789 61.78-23.359 75.27-52.589 13.78-27.93 10.04-59.821 9.91-89.918 0.08-81.52-0.17-163.07-0.14-244.62 35.29 0 70.62 0 105.91 0.02 0.03 90.75 0 181.52 0.03 272.29 0 37.012 2.02 75.133-10.85 110.51-14.48 42.929-47.53 79.527-89.36 97.16-30.51 12.43-64.03 12.07-96.39 13.32-27.88 0.938-57.14-0.031-82.47-13.043-30.31-16.226-56.388-39.777-77.423-66.828-0.277 26.488 0.273 52.988-0.309 79.449-33.133-0.277-66.269-0.058-99.406-0.109m-450.42-1.551c-20.902-2.097-41.801-5.699-61.676-12.679-28.543-9.551-54.812-28.372-68.488-55.75-25.246-48.719-24.664-105.31-24.496-158.76 0.828-48.973-2.992-98.524 6.613-146.88 6.867-36.238 22.977-74.027 55.809-93.82 43.515-26.457 96.363-29.18 145.97-29.227 58.464 0.578 119.23-4.371 174.9 17.328 28.539 10.16 52.953 32.078 64.582 60.238 22.84 51.602 20.18 109.31 20.348 164.43-0.446 46.344 2.379 93.32-7.641 138.91-7.113 34.16-23.144 69.262-53.676 88.364-39.308 24.308-86.812 28.847-131.99 29.898-40.086 0.141-80.254 1.352-120.25-2.051m622.72 1382.7c-130.86-72.63-236.47-189.56-295.73-326.95-52.156-121.61-68.875-258.64-43.933-388.83 7.754-39.31 16.941-78.7 31.586-116.01 4.125-13.07 19.156-9.11 29.594-9.22 76.679 0.58 153.36 0.8 230.02 1.46 73.52-0.11 147.04 1.75 220.54 0.42 5.21 3.4 7.17 10.1 8.53 15.86 7.5 58.11 15.89 116.07 23.75 174.12 15.94 113.61 30.73 227.44 47.92 340.86 2.32-192.92 3.26-385.87 4.65-578.81-178.25 0-356.47 0-534.71 0.02 10.215-14.89 20.926-29.39 30.84-44.48 115.02-0.67 230.06-0.25 345.11-0.42-6.12-4.4-12.68-8.22-18.41-13.12l0.17-2.57-0.86 2.32c-70.79-51.51-128.31-121.69-162.86-202.24 16.004-6.43 31.977-12.848 47.918-19.379 45.98 105 134.45 190.95 241.45 232.47 16.83 4.93 34.68 1.78 51.98 2.41-0.3-23.28 0.42-46.59 0.14-69.87-102.28-26.319-187.93-109.04-217.14-210.63 16.5-4.739 33.19-8.86 49.78-13.457 24.08 79.199 88.39 145.92 167.86 170.08-0.14-22.891 0.72-45.809 0.11-68.7-48.25-26.859-78.06-82.359-75.93-137.31 100.82 0.109 201.64 0.668 302.46 0.75 1.93 55.5-28.88 111.06-77.76 137.66-0.72 22.902-0.34 45.793-0.61 68.66 79.47-24.308 144.91-89.359 169.91-168.62 16.47 4.649 33.03 9.141 49.53 13.789-30.23 101.56-117.18 182.92-219.69 208.64 0.28 23.25-0.42 46.53-0.08 69.79 23.14 0.11 47.83 3.6 68.84-8.64 99.41-43.32 182.23-123.96 226.83-222.95 15.95 6.609 32 13.039 47.84 19.93-21.51 47.672-50.64 91.879-86.1 130.35-28.76 31.779-62.34 58.769-97.63 82.909 114.52 0.2 229.04 0.06 343.56 0.09 10.5 14.94 20.85 29.98 31.26 44.98-178.31-0.25-356.58-0.75-534.85-1.94-0.64 191.76-1.97 383.51-2.55 575.27l3.52-8.28c24-165.43 49.52-330.64 73.66-496.04 0.66-8.05 3.24-15.89 8.39-22.23 28.4 2.41 56.97 0.94 85.45 1.64 127.42 0.85 254.82 1.1 382.24 1.85 11.49-1.16 14.78 12.13 17.91 20.49 28.87 91.15 42.63 187.88 32.8 283.32-10.82 114.11-51.49 225.12-116.51 319.43-52.85 76.87-121.44 142.9-200.53 192.39-101.4 64.06-220.3 100.07-340.19 103.4 3.1-107.16 1.77-214.4 2.55-321.62 1.44-289.61 2.29-579.25 3.65-868.89-15.72 1.738-31.56 1.551-47.23-0.223-1.85 253.68-3.79 507.36-5.62 761.01-0.55 143.26-3.35 286.49-2.04 429.72-105.25-4.13-209.37-33.39-301.38-84.66m-323.36 549.47c-0.055-20.6-0.028-41.16-0.028-61.76 10.242 0 20.485 0.03 30.699-0.02 0.086-65.25 0-130.5 0.055-195.75-0.055-25.52 6.426-52.68 24.555-71.58 13.594-14.65 34.105-20.8 53.648-20.65 64.086-0.12 128.17-0.03 192.25-0.06 0 20.65 0.03 41.27-0.02 61.93-49.305 0.02-98.637-0.06-147.96 0.02-12.348 0.55-27.156 0.53-35.902 10.77-8.25 10.99-7.668 25.52-8.282 38.56-0.136 58.94 0.114 117.87-0.136 176.81 24.914-0.14 49.828 0.22 74.742-0.25 11.906 0.03 21.316-9.14 26.992-18.8 13.203-21.62 17.605-50.63 4.707-73.41-10.465-17.88-36.848-23.72-53.18-10.22-6.117-24.02-13.785-47.64-20.734-71.44 38.285-14.09 83.324-7.04 115.85 17.49 24.387 18.11 42.827 46.01 44.647 76.88 2.3 28.79-9.52 56.66-25.93 79.7 105.8 0.05 211.6 0.02 317.4 0.02 0.03-18.24 0-36.51 0-54.78-52.71-0.31-105.41 0.61-158.12-0.5-27.49-0.17-56.14-6.06-78.09-23.53-32.69-24.66-44.4-70.45-34.13-109.12 8.88-33.75 35.79-61.43 68.34-73.3 31.28-11.88 67.6-9.61 97.11 6.17 27.55 14.47 48.86 40.88 55.7 71.39 5.65 22.45 1.3 45.98-7.17 67.13 18.71-0.39 37.43-0.25 56.14-0.17 0.53-57.11 0.08-114.21 0.22-171.32 26.05 0.3 52.07 0.05 78.12 0.13 0.03 95.98-0.05 191.93 0.03 287.88 11.32 0.05 22.64 0.02 33.99 0.02 0.03 20.54 0.03 41.08 0 61.62-235.19 0.03-470.35-0.11-705.51 0.14m-248.14 119.01c0-20.1-0.055-40.2 0.027-60.29 24.032-0.39 50.192 3.43 71.95-9.17 17.464-10.44 21.757-31.75 27.679-49.63-48.082-0.14-96.168 0-144.25-0.08-0.027-20.52-0.027-41.06 0-61.57 9.356-0.03 18.711-0.03 28.098-0.03 0.164-55.22 0.055-110.48 0.055-165.73-10.297-0.03-20.625-0.03-30.922 0-3.266 23.58-13.067 46.2-28.762 64.19 9.66 15.86 17.66 33.47 18.574 52.29 2.078 27.08-7.308 54.65-24.914 75.25-23.613 28.2-61.094 43.4-97.609 41.91-35.985-0.67-71.473-18.44-92.985-47.42-15.554-20.49-22.531-46.7-20.707-72.25 24.832-0.09 49.664 0.08 74.496-0.12-1.164 11.47 0.856 23.54 7.778 32.95 13.84 20.73 45.344 24.3 63.918 7.91 19.629-15.33 20.015-47.8 1.355-64.05-11.847-11.52-29.703-7.23-44.593-8.06 0.109-20.59-0.25-41.19 0.191-61.76 14.176-0.44 28.875 2.19 42.605-2.27 17.911-9.8 24.832-33.47 18.52-52.26-5.981-17.74-23.309-30.98-42.024-31.92-22.726-1.74-45.203 15.36-49.246 37.84-2.019 9.05 0.414 18.16 2.161 27.05-26.438-0.36-52.875-0.06-79.34-0.17-4.344-44.29 19.547-89.16 57.746-111.56 36.652-22.36 84.679-25 123.38-6.25 29.371 13.78 53.011 39.47 63.781 70.12 12.18 0.55 24.418 0.16 36.625 0.22 0.027-24.64-0.055-49.31 0.027-73.97 25.992 0.03 52.016 0 78.008 0 0.055 96-0.027 192.03 0.055 288.04 15.836 0.05 31.699 0.08 47.558-0.04 0-96-0.027-192 0-288h77.985c0.023 95.97 0 191.98 0 287.98 9.742 0.14 19.515 0.11 29.285 0.08 0 20.6 0 41.16-0.027 61.76-11.157 0-22.286-0.03-33.442 0.03-8.551 19.05-17.16 38.06-25.328 57.27-5.176 14.23-10.324 29.29-21.535 40.01-15.309 15.5-37.734 21.42-58.938 21.7-25.746 0.08-51.488 0-77.234 0m1883.9-6.81c-25.39-10.25-50-27.71-60.52-53.93-8.16-19.04-3.73-41.19 7.04-58.27-82.89 0.08-165.77-0.11-248.65-0.14-0.05-20.54-0.05-41.08 0-61.62 34.55 0.03 69.1 0.03 103.67-0.14 5.82-0.22 12.18 1.03 17.47-2.24 26.46-13.4 38.2-47.28 30.42-75.1-4.45-15.45-17.08-29.81-33.69-31.7-13.7-1.96-26.18 5.68-36.76 13.4 0 17.55-0.33 35.1-0.22 52.65h-77.98c0.05-49.96-0.14-99.9 0.11-149.87 0.5-27.54 6.62-57.16 25.94-77.93 11.9-13.12 29.87-18.82 47.2-18.63 51.85-0.02 103.69-0.27 155.54 0.14-0.33 20.57-0.08 41.14-0.13 61.71-41.56-0.17-83.08-0.25-124.6 0.44-8.47 0.72-20.52 1.22-23.23 11.18-3.98 16.89-2.52 34.44-2.85 51.63 38.98-24.77 92.18-10.77 122.97 20.9 27.01 0.2 54.03 0.25 81.05 0.2 0.17-48.28-0.25-96.56 0.22-144.81 25.83 0.17 51.68 0.22 77.51-0.03 0.64 96.06-0.03 192.14 0.33 288.23 15.81-0.05 31.64 0.03 47.48-0.05 0.05-96.01-0.03-192.01 0.03-288.04h78.14v288.04c10.69 0.52 21.76-0.86 32.28 0.77 0.33 20.23 0.11 40.5 0 60.73-8.33 0.2-16.64 0.2-24.94 0.12 10.71 17.1 15.2 39.25 7.14 58.32-10.52 26.13-34.96 43.63-60.29 53.93-44.68 17.47-95.95 17.49-140.68 0.11m-566.85-1.14c-24.53-10.43-48.14-27.84-58.05-53.45-7.89-18.96-3.24-40.83 7.36-57.77-90.33 0.05-180.65 0.02-270.98 0-0.03-20.52-0.03-41.06 0-61.6 97.44 0 194.85 0 292.3 0.03 0.19-15.92 0.08-31.84 0.08-47.75-64.53-0.09-129.06-0.03-193.58-0.03 0-20.57 0.02-41.14 0-61.7 17.85-1.42 37.62 4.56 53.75-5.76 19.11-13.68 25.58-39.31 22.43-61.65-2.38-18.13-12.04-37.29-29.9-44.24-13.7-5.7-29.51 0.94-38.23 12.1-13.48 16.64-16.3 39.42-12.76 59.96-27.43-0.22-54.84-0.03-82.27-0.11-3.93-22.53-2.3-46.31 6.75-67.49 15.56-38.34 52.13-67.08 92.96-73.52 31.56-5.29 65.22 1.68 91.46 20.15 28.16 19.24 47.7 50.88 51.33 84.87 3.37 26.33-3.74 53.21-17.17 75.85 18.33-0.03 36.68 0.28 55.03-0.25 0.06-59.52-0.02-119 0.06-178.52 26.05 0.03 52.1 0 78.15 0 0.02 96 0 192 0 288 17.35-0.05 34.74 0.42 52.1-0.24-0.36-95.92-0.23-191.84 0.02-287.76 25.89 0.03 51.77 0 77.65 0 0.03 96 0 192 0.03 288 13.7 0.12 27.43 0.12 41.16-0.13 0.36 20.65 0.14 41.3 0.17 61.95-7.75-0.14-15.47-0.16-23.2-0.19 9.77 16.16 14.78 36.4 8.42 54.75-9.36 27.3-34.05 46.01-59.85 56.75-46.01 18.46-99.33 18.71-145.22-0.25m-1796.2 99.05h2768.2v-2768.2h-2768.2v2768.2"/><path d="m1850.3 2617.3c16.55 5.17 35.46 3.48 50.35-5.65 8.34-5.18 15.56-13.37 16.67-23.45 1.05-12.54-7.7-24.11-18.58-29.43-16.44-1.79-33.05-0.13-49.58-0.97-18.68-1.46-33.41 20.79-26.24 37.71 4.96 11.15 15.95 18.41 27.38 21.79"/><path d="m2412.5 2616.8c22.42 7.55 51.54 2.82 65.33-17.97 9.11-14.37-0.61-33.64-14.98-40.11-16.25-1.41-32.63-0.5-48.94-0.64-19.6-2.77-35.52 22.7-25.72 39.51 4.99 9.46 14.37 15.77 24.31 19.21"/><path d="m2276.4 2496.4c23.17-0.11 46.39 0.25 69.59-0.19-0.19-27.13-0.06-54.29-0.08-81.44-16.14-0.2-32.25 0.02-48.36-0.14 3.82 28.76-3.69 58.57-21.15 81.77"/><path d="m1149.9 2376.4c19.8 5.89 41.75-7.17 48.03-26.41 9.22-23.53-6.5-54.04-32.22-57.42-23.61-3.6-45.79 17.78-45.51 41.14-0.55 18.55 11.41 37.54 29.7 42.69"/><path d="m892.26 1820.8c110.34 133.27 277.04 218.5 450.06 227.38-53.15-264.61-106.41-529.17-159.37-793.81-2.16-10.14-0.69-27.6-14.84-28.82-131.77-0.42-263.56-0.25-395.33-0.5-19.433 65.83-30.617 134.48-28.457 203.24 2.656 142.6 56.305 283.36 147.93 392.51"/><path d="m1411.2 2048.3c116.62-4.96 231.42-43.88 327.56-109.99 79.45-54.28 146.25-126.86 194.05-210.35 58.55-102.07 87.9-220.72 83.24-338.31-2.04-53.46-11.59-106.44-26.1-157.87-130.94-1.8-261.87-2.41-392.78-3.99-6.29-0.86-12.52 3.13-14.12 9.27-10.44 54.76-22.9 109.21-34.25 163.83-45.84 215.81-91.93 431.57-137.6 647.41"/><path d="m422.16 518.4c9.438 2.692 19.352 2.411 29.067 2.743 36.871 0.668 73.746-0.051 110.62 0.199 16.723 0.109 34.383-1.391 48.777-10.77 13.203-8.609 21.535-23.84 22.699-39.5 2.079-29.621 1.524-59.332 1.579-89.031-0.082-32.391 0.691-64.828-2.133-97.141-1.438-15.546-9.274-30.918-22.559-39.609-14.09-9.551-31.64-11.32-48.223-11.301-37.843 0.094-75.656-0.047-113.47 0.094-18.738 0.109-38.977 4.09-52.594 17.957-10.023 10.16-15.144 24.391-15.726 38.481-1.579 38.812-0.61 77.652-0.829 116.46 0.196 24.86-0.941 50 4.012 74.489 4.516 18.472 21.039 31.922 38.785 36.929"/></g><g fill="#fff"><path d="m1850.3 2617.3c-11.43-3.38-22.42-10.64-27.38-21.79-7.17-16.92 7.56-39.17 26.24-37.71 16.53 0.84 33.14-0.82 49.58 0.97 10.88 5.32 19.63 16.89 18.58 29.43-1.11 10.08-8.33 18.27-16.67 23.45-14.89 9.13-33.8 10.82-50.35 5.65zm-54.06 51.84c45.89 18.96 99.21 18.71 145.22 0.25 25.8-10.74 50.49-29.45 59.85-56.75 6.36-18.35 1.35-38.59-8.42-54.75 7.73 0.03 15.45 0.05 23.2 0.19-0.03-20.65 0.19-41.3-0.17-61.95-13.73 0.25-27.46 0.25-41.16 0.13-0.03-96 0-192-0.03-288-25.88 0-51.76 0.03-77.65 0-0.25 95.92-0.38 191.84-0.02 287.76-17.36 0.66-34.75 0.19-52.1 0.24 0-96 0.02-192 0-288-26.05 0-52.1 0.03-78.15 0-0.08 59.52 0 119-0.06 178.52-18.35 0.53-36.7 0.22-55.03 0.25 13.43-22.64 20.54-49.52 17.17-75.85-3.63-33.99-23.17-65.63-51.33-84.87-26.24-18.47-59.9-25.44-91.46-20.15-40.83 6.44-77.4 35.18-92.96 73.52-9.05 21.18-10.68 44.96-6.75 67.49 27.43 0.08 54.84-0.11 82.27 0.11-3.54-20.54-0.72-43.32 12.76-59.96 8.72-11.16 24.53-17.8 38.23-12.1 17.86 6.95 27.52 26.11 29.9 44.24 3.15 22.34-3.32 47.97-22.43 61.65-16.13 10.32-35.9 4.34-53.75 5.76 0.02 20.56 0 41.13 0 61.7 64.52 0 129.05-0.06 193.58 0.03 0 15.91 0.11 31.83-0.08 47.75-97.45-0.03-194.86-0.03-292.3-0.03-0.03 20.54-0.03 41.08 0 61.6 90.33 0.02 180.65 0.05 270.98 0-10.6 16.94-15.25 38.81-7.36 57.77 9.91 25.61 33.52 43.02 58.05 53.45"/><path d="m2276.4 2496.4c17.46-23.2 24.97-53.01 21.15-81.77 16.11 0.16 32.22-0.06 48.36 0.14 0.02 27.15-0.11 54.31 0.08 81.44-23.2 0.44-46.42 0.08-69.59 0.19zm136.14 120.48c-9.94-3.44-19.32-9.75-24.31-19.21-9.8-16.81 6.12-42.28 25.72-39.51 16.31 0.14 32.69-0.77 48.94 0.64 14.37 6.47 24.09 25.74 14.98 40.11-13.79 20.79-42.91 25.52-65.33 17.97m-49.44 53.48c44.73 17.38 96 17.36 140.68-0.11 25.33-10.3 49.77-27.8 60.29-53.93 8.06-19.07 3.57-41.22-7.14-58.32 8.3 0.08 16.61 0.08 24.94-0.12 0.11-20.23 0.33-40.5 0-60.73-10.52-1.63-21.59-0.25-32.28-0.77v-288.04h-78.14c-0.06 96.03 0.02 192.03-0.03 288.04-15.84 0.08-31.67 0-47.48 0.05-0.36-96.09 0.31-192.17-0.33-288.23-25.83 0.25-51.68 0.2-77.51 0.03-0.47 48.25-0.05 96.53-0.22 144.81-27.02 0.05-54.04 0-81.05-0.2-30.79-31.67-83.99-45.67-122.97-20.9 0.33-17.19-1.13-34.74 2.85-51.63 2.71-9.96 14.76-10.46 23.23-11.18 41.52-0.69 83.04-0.61 124.6-0.44 0.05-20.57-0.2-41.14 0.13-61.71-51.85-0.41-103.69-0.16-155.54-0.14-17.33-0.19-35.3 5.51-47.2 18.63-19.32 20.77-25.44 50.39-25.94 77.93-0.25 49.97-0.06 99.91-0.11 149.87h77.98c-0.11-17.55 0.22-35.1 0.22-52.65 10.58-7.72 23.06-15.36 36.76-13.4 16.61 1.89 29.24 16.25 33.69 31.7 7.78 27.82-3.96 61.7-30.42 75.1-5.29 3.27-11.65 2.02-17.47 2.24-34.57 0.17-69.12 0.17-103.67 0.14-0.05 20.54-0.05 41.08 0 61.62 82.88 0.03 165.76 0.22 248.65 0.14-10.77 17.08-15.2 39.23-7.04 58.27 10.52 26.22 35.13 43.68 60.52 53.93"/><path d="m479.12 2677.1c25.746 0 51.488 0.08 77.234 0 21.204-0.28 43.629-6.2 58.938-21.7 11.211-10.72 16.359-25.78 21.535-40.01 8.168-19.21 16.777-38.22 25.328-57.27 11.156-0.06 22.285-0.03 33.442-0.03 0.027-20.6 0.027-41.16 0.027-61.76-9.77 0.03-19.543 0.06-29.285-0.08 0-96 0.023-192.01 0-287.98h-77.985c-0.027 96 0 192 0 288-15.859 0.12-31.722 0.09-47.558 0.04-0.082-96.01 0-192.04-0.055-288.04-25.992 0-52.016 0.03-78.008 0-0.082 24.66 0 49.33-0.027 73.97-12.207-0.06-24.445 0.33-36.625-0.22-10.77-30.65-34.41-56.34-63.781-70.12-38.7-18.75-86.727-16.11-123.38 6.25-38.199 22.4-62.09 67.27-57.746 111.56 26.465 0.11 52.902-0.19 79.34 0.17-1.747-8.89-4.18-18-2.161-27.05 4.043-22.48 26.52-39.58 49.246-37.84 18.715 0.94 36.043 14.18 42.024 31.92 6.312 18.79-0.609 42.46-18.52 52.26-13.73 4.46-28.429 1.83-42.605 2.27-0.441 20.57-0.082 41.17-0.191 61.76 14.89 0.83 32.746-3.46 44.593 8.06 18.66 16.25 18.274 48.72-1.355 64.05-18.574 16.39-50.078 12.82-63.918-7.91-6.922-9.41-8.942-21.48-7.778-32.95-24.832 0.2-49.664 0.03-74.496 0.12-1.824 25.55 5.153 51.76 20.707 72.25 21.512 28.98 57 46.75 92.985 47.42 36.515 1.49 73.996-13.71 97.609-41.91 17.606-20.6 26.992-48.17 24.914-75.25-0.914-18.82-8.914-36.43-18.574-52.29 15.695-17.99 25.496-40.61 28.762-64.19 10.297-0.03 20.625-0.03 30.922 0 0 55.25 0.109 110.51-0.055 165.73-9.387 0-18.742 0-28.098 0.03-0.027 20.51-0.027 41.05 0 61.57 48.082 0.08 96.168-0.06 144.25 0.08-5.922 17.88-10.215 39.19-27.679 49.63-21.758 12.6-47.918 8.78-71.95 9.17-0.082 20.09-0.027 40.19-0.027 60.29"/><path d="m1149.9 2376.4c-18.29-5.15-30.25-24.14-29.7-42.69-0.28-23.36 21.9-44.74 45.51-41.14 25.72 3.38 41.44 33.89 32.22 57.42-6.28 19.24-28.23 32.3-48.03 26.41zm-422.65 181.73c235.16-0.25 470.32-0.11 705.51-0.14 0.03-20.54 0.03-41.08 0-61.62-11.35 0-22.67 0.03-33.99-0.02-0.08-95.95 0-191.9-0.03-287.88-26.05-0.08-52.07 0.17-78.12-0.13-0.14 57.11 0.31 114.21-0.22 171.32-18.71-0.08-37.43-0.22-56.14 0.17 8.47-21.15 12.82-44.68 7.17-67.13-6.84-30.51-28.15-56.92-55.7-71.39-29.51-15.78-65.83-18.05-97.11-6.17-32.55 11.87-59.46 39.55-68.34 73.3-10.27 38.67 1.44 84.46 34.13 109.12 21.95 17.47 50.6 23.36 78.09 23.53 52.71 1.11 105.41 0.19 158.12 0.5 0 18.27 0.03 36.54 0 54.78-105.8 0-211.6 0.03-317.4-0.02 16.41-23.04 28.23-50.91 25.93-79.7-1.82-30.87-20.26-58.77-44.647-76.88-32.527-24.53-77.566-31.58-115.85-17.49 6.949 23.8 14.617 47.42 20.734 71.44 16.332-13.5 42.715-7.66 53.18 10.22 12.898 22.78 8.496 51.79-4.707 73.41-5.676 9.66-15.086 18.83-26.992 18.8-24.914 0.47-49.828 0.11-74.742 0.25 0.25-58.94 0-117.87 0.136-176.81 0.614-13.04 0.032-27.57 8.282-38.56 8.746-10.24 23.554-10.22 35.902-10.77 49.328-0.08 98.66 0 147.96-0.02 0.05-20.66 0.02-41.28 0.02-61.93-64.079 0.03-128.16-0.06-192.25 0.06-19.543-0.15-40.054 6-53.648 20.65-18.129 18.9-24.61 46.06-24.555 71.58-0.055 65.25 0.031 130.5-0.055 195.75-10.214 0.05-20.457 0.02-30.699 0.02 0 20.6-0.027 41.16 0.028 61.76"/><path d="m1411.2 2048.3c45.67-215.84 91.76-431.6 137.6-647.41 11.35-54.62 23.81-109.07 34.25-163.83 1.6-6.14 7.83-10.13 14.12-9.27 130.91 1.58 261.84 2.19 392.78 3.99 14.51 51.43 24.06 104.41 26.1 157.87 4.66 117.59-24.69 236.24-83.24 338.31-47.8 83.49-114.6 156.07-194.05 210.35-96.14 66.11-210.94 105.03-327.56 109.99zm-518.99-227.5c-91.629-109.15-145.28-249.91-147.93-392.51-2.16-68.76 9.024-137.41 28.457-203.24 131.77 0.25 263.56 0.08 395.33 0.5 14.15 1.22 12.68 18.68 14.84 28.82 52.96 264.64 106.22 529.2 159.37 793.81-173.02-8.88-339.72-94.11-450.06-227.38m158.37 187.85c92.01 51.27 196.13 80.53 301.38 84.66-1.31-143.23 1.49-286.46 2.04-429.72 1.83-253.65 3.77-507.33 5.62-761.01 15.67 1.774 31.51 1.961 47.23 0.223-1.36 289.64-2.21 579.28-3.65 868.89-0.78 107.22 0.55 214.46-2.55 321.62 119.89-3.33 238.79-39.34 340.19-103.4 79.09-49.49 147.68-115.52 200.53-192.39 65.02-94.31 105.69-205.32 116.51-319.43 9.83-95.44-3.93-192.17-32.8-283.32-3.13-8.36-6.42-21.65-17.91-20.49-127.42-0.75-254.82-1-382.24-1.85-28.48-0.7-57.05 0.77-85.45-1.64-5.15 6.34-7.73 14.18-8.39 22.23-24.14 165.4-49.66 330.61-73.66 496.04l-3.52 8.28c0.58-191.76 1.91-383.51 2.55-575.27 178.27 1.19 356.54 1.69 534.85 1.94-10.41-15-20.76-30.04-31.26-44.98-114.52-0.03-229.04 0.11-343.56-0.09 35.29-24.14 68.87-51.13 97.63-82.909 35.46-38.472 64.59-82.679 86.1-130.35-15.84-6.891-31.89-13.321-47.84-19.93-44.6 98.988-127.42 179.63-226.83 222.95-21.01 12.24-45.7 8.75-68.84 8.64-0.34-23.26 0.36-46.54 0.08-69.79 102.51-25.722 189.46-107.08 219.69-208.64-16.5-4.648-33.06-9.14-49.53-13.789-25 79.258-90.44 144.31-169.91 168.62 0.27-22.867-0.11-45.758 0.61-68.66 48.88-26.598 79.69-82.156 77.76-137.66-100.82-0.082-201.64-0.641-302.46-0.75-2.13 54.949 27.68 110.45 75.93 137.31 0.61 22.891-0.25 45.809-0.11 68.7-79.47-24.16-143.78-90.879-167.86-170.08-16.59 4.597-33.28 8.718-49.78 13.457 29.21 101.59 114.86 184.31 217.14 210.63 0.28 23.28-0.44 46.59-0.14 69.87-17.3-0.63-35.15 2.52-51.98-2.41-107-41.52-195.47-127.47-241.45-232.47-15.941 6.531-31.914 12.949-47.918 19.379 34.548 80.55 92.068 150.73 162.86 202.24l0.86-2.32-0.17 2.57c5.73 4.9 12.29 8.72 18.41 13.12-115.05 0.17-230.1-0.25-345.11 0.42-9.914 15.09-20.625 29.59-30.84 44.48 178.25-0.02 356.46-0.02 534.71-0.02-1.39 192.94-2.33 385.89-4.65 578.81-17.19-113.42-31.98-227.25-47.92-340.86-7.86-58.05-16.25-116.01-23.75-174.12-1.36-5.76-3.32-12.46-8.53-15.86-73.5 1.33-147.02-0.53-220.54-0.42-76.656-0.66-153.34-0.88-230.02-1.46-10.438 0.11-25.469-3.85-29.594 9.22-14.645 37.31-23.832 76.7-31.586 116.01-24.942 130.19-8.223 267.22 43.933 388.83 59.266 137.39 164.88 254.32 295.73 326.95"/><path d="m422.16 518.4c-17.746-5.007-34.269-18.457-38.785-36.929-4.953-24.489-3.816-49.629-4.012-74.489 0.219-38.808-0.75-77.648 0.829-116.46 0.582-14.09 5.703-28.321 15.726-38.481 13.617-13.867 33.856-17.848 52.594-17.957 37.816-0.141 75.629 0 113.47-0.094 16.583-0.019 34.133 1.75 48.223 11.301 13.285 8.691 21.121 24.063 22.559 39.609 2.824 32.313 2.051 64.75 2.133 97.141-0.055 29.699 0.5 59.41-1.579 89.031-1.164 15.66-9.496 30.891-22.699 39.5-14.394 9.379-32.054 10.879-48.777 10.77-36.871-0.25-73.746 0.469-110.62-0.199-9.715-0.332-19.629-0.051-29.067-2.743zm5.758 107.55c40 3.403 80.168 2.192 120.25 2.051 45.176-1.051 92.68-5.59 131.99-29.898 30.532-19.102 46.563-54.204 53.676-88.364 10.02-45.59 7.195-92.566 7.641-138.91-0.168-55.117 2.492-112.83-20.348-164.43-11.629-28.16-36.043-50.078-64.582-60.238-55.672-21.699-116.43-16.75-174.9-17.328-49.606 0.047-102.45 2.77-145.97 29.227-32.832 19.793-48.942 57.582-55.809 93.82-9.605 48.359-5.785 97.91-6.613 146.88-0.168 53.449-0.75 110.04 24.496 158.76 13.676 27.378 39.945 46.199 68.488 55.75 19.875 6.98 40.774 10.582 61.676 12.679"/><path d="m878.33 627.5c33.137 0.051 66.273-0.168 99.406 0.109 0.582-26.461 0.032-52.961 0.309-79.449 21.035 27.051 47.113 50.602 77.423 66.828 25.33 13.012 54.59 13.981 82.47 13.043 32.36-1.25 65.88-0.89 96.39-13.32 41.83-17.633 74.88-54.231 89.36-97.16 12.87-35.379 10.85-73.5 10.85-110.51-0.03-90.769 0-181.54-0.03-272.29-35.29-0.02-70.62-0.02-105.91-0.02-0.03 81.551 0.22 163.1 0.14 244.62 0.13 30.097 3.87 61.988-9.91 89.918-13.49 29.23-43.71 48.8-75.27 52.589-29.01 3.551-59.71 2.493-86.65-9.961-31.03-14.367-55.72-42-65.91-74.718-4.926-15.032-6.531-30.969-6.836-46.75v-255.73c-35.156-0.14-70.285 0.391-105.41-0.25-0.996 164.32-0.141 328.7-0.418 493.05"/><path d="m1533.9 606.46c41.3 19.18 87.72 21.398 132.51 21.699 50.75-0.469 102.51 2.692 152.06-10.488 25.69-7.363 51.8-18.711 69.1-39.863 29.04-35.68 35.15-83.321 37.92-127.7-35.54 0.063-71.09-0.027-106.6 0.063-0.56 18.207-1.22 38.777-14.81 52.648-15.81 17.11-40.75 19.399-62.67 18.711-37.85-0.191-75.72 0.309-113.56-0.222-20.18-0.219-42.16-7.34-53.56-25.047-12.43-19.051-9.06-42.942-10.63-64.532 0.3-47-1.03-94.058 0.83-141.1 0.52-17.348 8.58-35.149 23.42-44.84 13.98-9.66 31.53-11.551 48.11-11.598 38.78 0.028 77.56-0.031 116.35 0.028 19.65 0.019 41.19 5.75 53.65 22.031 10.82 13.211 11.4 31.09 12.45 47.309-35.35 0.062-70.67 0-106.02 0.031 0 35.398-0.03 70.808 0 106.22 71.12-0.118 142.26 0.3 213.38-0.2-1.2-55.75 3.7-112.33-8.5-167.26-6.98-30.141-20.35-60.903-46.04-79.661-30.34-22.043-68.46-28.992-105-32.421-36.93-2.461-73.97-1.11-110.95-1.469-46.26 0.359-94.81 5.039-135.42 29.097-30.67 18.762-47.17 53.153-54.42 87.223-9.78 42.16-7.78 85.707-8.06 128.64 0.55 55.398-3.57 112.78 16.33 165.63 10.02 29.168 31.75 54.531 60.13 67.07"/><path d="m2120.3 601.2c41.16 22.922 89.55 26.242 135.7 26.711 53.65-0.328 108.48 3.27 160.8-11.07 29.74-8.051 59-24.219 75.52-51.07 22.65-36.739 27.55-80.891 29.32-123.13h-106.58c-0.72 20.179 0.14 43.097-14.17 59.211-14.56 16.546-38.15 19.867-58.99 19.519-39.67-0.23-79.34 0.27-119.01-0.312-19.46-0.219-40.42-7.278-51.88-23.86-10.16-14.058-10.18-32.199-11.1-48.777-0.69-47.031-0.61-94.063-0.19-141.09 0.36-16.781 0.75-35.133 11.29-49.141 12.24-17.39 34.5-23.859 54.84-24.082 40.58-0.199 81.14-0.058 121.72-0.089 20.29 0.089 42.77 5.902 55.23 23.171 11.9 15.7 10.63 36.321 11.98 54.918 35.58 0.032 71.17-0.019 106.77 0.032-1.35-28.821-3.76-57.911-12.54-85.559-6.81-22.594-18.29-44.461-36.48-59.941-21.51-17.711-48.67-26.77-75.71-31.832-36.29-7.137-73.5-6.09-110.29-6.2-40.61 0.032-81.83-0.859-121.47 9.332-30.12 7.059-59.85 21.559-78.42 47.11-17 24.058-25.08 53.238-29.18 82.051-5.4 36.238-3.46 72.949-3.99 109.43 0.31 51.41-2.68 104.17 13.15 153.83 8.81 28.852 26.66 56.2 53.68 70.84"/></g></g></g></g><style type="text/css">.st0{fill:#FFFFFF;}
	.st1{fill:#3B73B9;}</style><style type="text/css"/><style type="text/css">.st0{fill:#367C2B;}
	.st1{fill:#FDDA01;}</style></svg>
